<svg class="main-svg" xmlns="http://www.w3.org/2000/svg" xmlns:xlink="http://www.w3.org/1999/xlink" width="400" height="300" style="" viewBox="0 0 400 300"><rect x="0" y="0" width="400" height="300" style="fill: rgb(255, 255, 255); fill-opacity: 1;"/><defs id="defs-5fc424"><g class="clips"><clipPath id="clip5fc424xyplot" class="plotclip"><rect width="319" height="224"/></clipPath><clipPath class="axesclip" id="clip5fc424x"><rect x="70" y="0" width="319" height="300"/></clipPath><clipPath class="axesclip" id="clip5fc424y"><rect x="0" y="21" width="400" height="224"/></clipPath><clipPath class="axesclip" id="clip5fc424xy"><rect x="70" y="21" width="319" height="224"/></clipPath></g><g class="gradients"/></defs><g class="bglayer"/><g class="layer-below"><g class="imagelayer"/><g class="shapelayer"/></g><g class="cartesianlayer"><g class="subplot xy"><g class="layer-subplot"><g class="shapelayer"/><g class="imagelayer"/></g><g class="gridlayer"><g class="x"/><g class="y"/></g><g class="zerolinelayer"/><path class="xlines-below"/><path class="ylines-below"/><g class="overlines-below"/><g class="xaxislayer-below"/><g class="yaxislayer-below"/><g class="overaxes-below"/><g class="plot" transform="translate(70, 21)" clip-path="url('#clip5fc424xyplot')"/><g class="overplot"/><path class="xlines-above crisp" style="fill: none; stroke-width: 1px; stroke: rgb(0, 0, 0); stroke-opacity: 1;" d="M65,249.5H394M65,16.5H394"/><path class="ylines-above crisp" style="fill: none; stroke-width: 1px; stroke: rgb(0, 0, 0); stroke-opacity: 1;" d="M65.5,17V249M393.5,17V249"/><g class="overlines-above"/><g class="xaxislayer-above"><path class="xtick ticks crisp" d="M0,249v-5" transform="translate(101.9,0)" style="stroke: rgb(68, 68, 68); stroke-opacity: 1; stroke-width: 1px;"/><path class="xtick ticks crisp" d="M0,249v-5" transform="translate(165.7,0)" style="stroke: rgb(68, 68, 68); stroke-opacity: 1; stroke-width: 1px;"/><path class="xtick ticks crisp" d="M0,249v-5" transform="translate(229.5,0)" style="stroke: rgb(68, 68, 68); stroke-opacity: 1; stroke-width: 1px;"/><path class="xtick ticks crisp" d="M0,249v-5" transform="translate(293.3,0)" style="stroke: rgb(68, 68, 68); stroke-opacity: 1; stroke-width: 1px;"/><path class="xtick ticks crisp" d="M0,249v-5" transform="translate(357.1,0)" style="stroke: rgb(68, 68, 68); stroke-opacity: 1; stroke-width: 1px;"/><g class="xtick"><text text-anchor="middle" x="0" y="274" transform="translate(101.9,0)" style="font-family: Balto; font-size: 20px; fill: rgb(42, 63, 95); fill-opacity: 1; white-space: pre;">-2</text></g><g class="xtick"><text text-anchor="middle" x="0" y="274" transform="translate(165.7,0)" style="font-family: Balto; font-size: 20px; fill: rgb(42, 63, 95); fill-opacity: 1; white-space: pre;">-1</text></g><g class="xtick"><text text-anchor="middle" x="0" y="274" transform="translate(229.5,0)" style="font-family: Balto; font-size: 20px; fill: rgb(42, 63, 95); fill-opacity: 1; white-space: pre;">0</text></g><g class="xtick"><text text-anchor="middle" x="0" y="274" transform="translate(293.3,0)" style="font-family: Balto; font-size: 20px; fill: rgb(42, 63, 95); fill-opacity: 1; white-space: pre;">1</text></g><g class="xtick"><text text-anchor="middle" x="0" y="274" transform="translate(357.1,0)" style="font-family: Balto; font-size: 20px; fill: rgb(42, 63, 95); fill-opacity: 1; white-space: pre;">2</text></g></g><g class="yaxislayer-above"><path class="ytick ticks crisp" d="M66,0h5" transform="translate(0,200.2)" style="stroke: rgb(68, 68, 68); stroke-opacity: 1; stroke-width: 1px;"/><path class="ytick ticks crisp" d="M66,0h5" transform="translate(0,155.4)" style="stroke: rgb(68, 68, 68); stroke-opacity: 1; stroke-width: 1px;"/><path class="ytick ticks crisp" d="M66,0h5" transform="translate(0,110.6)" style="stroke: rgb(68, 68, 68); stroke-opacity: 1; stroke-width: 1px;"/><path class="ytick ticks crisp" d="M66,0h5" transform="translate(0,65.8)" style="stroke: rgb(68, 68, 68); stroke-opacity: 1; stroke-width: 1px;"/><g class="ytick"><text text-anchor="end" x="61" y="7" transform="translate(0,245)" style="font-family: Balto; font-size: 20px; fill: rgb(42, 63, 95); fill-opacity: 1; white-space: pre;">0</text></g><g class="ytick"><text text-anchor="end" x="61" y="7" transform="translate(0,200.2)" style="font-family: Balto; font-size: 20px; fill: rgb(42, 63, 95); fill-opacity: 1; white-space: pre;">0.02</text></g><g class="ytick"><text text-anchor="end" x="61" y="7" transform="translate(0,155.4)" style="font-family: Balto; font-size: 20px; fill: rgb(42, 63, 95); fill-opacity: 1; white-space: pre;">0.04</text></g><g class="ytick"><text text-anchor="end" x="61" y="7" transform="translate(0,110.6)" style="font-family: Balto; font-size: 20px; fill: rgb(42, 63, 95); fill-opacity: 1; white-space: pre;">0.06</text></g><g class="ytick"><text text-anchor="end" x="61" y="7" transform="translate(0,65.8)" style="font-family: Balto; font-size: 20px; fill: rgb(42, 63, 95); fill-opacity: 1; white-space: pre;">0.08</text></g><g class="ytick"><text text-anchor="end" x="61" y="7" transform="translate(0,21)" style="font-family: Balto; font-size: 20px; fill: rgb(42, 63, 95); fill-opacity: 1; white-space: pre;">0.1</text></g></g><g class="overaxes-above"/></g></g><g class="polarlayer"/><g class="ternarylayer"/><g class="geolayer"/><g class="funnelarealayer"/><g class="pielayer"/><g class="treemaplayer"/><g class="sunburstlayer"/><g class="glimages"/><defs id="topdefs-5fc424"><g class="clips"/></defs><g class="layer-above"><g class="imagelayer"/><g class="shapelayer"><path data-index="0" fill-rule="evenodd" d="M 133.8 244.64,L 103.84 245,H 102.78,L 70 244.64,H 79.87,L 89.27 244.75,H 116.18,L 124.4 244.64,H 133.8,M 91.38 244.78,L 103.37 244.91,L 114.3 244.78,H 91.38,Z" clip-path="url('#clip5fc424xy')" style="opacity: 1; stroke: rgb(0, 0, 0); stroke-opacity: 0; fill: rgb(0, 128, 0); fill-opacity: 1; stroke-width: 0px;"/><path data-index="1" fill-rule="evenodd" d="M 97.51 244.64,C 85.95 244.64 75.62 244.64 70.26 244.63,L 77.66 244.63,C 78.84 244.63 79.21000000000001 244.63 79.67 244.63,C 82.53999999999999 244.63 89.2 244.64 97.57 244.64,C 105.47 244.64 113.84 244.63 118.68 244.63,C 122.34 244.62 123.39 244.62 123.39 244.61,C 123.39 244.6 122.28999999999999 244.59 114.46000000000001 244.58,C 109.36 244.58 102.69 244.58 96.63 244.58,C 91.03999999999999 244.58 85.01 244.58 79.74 244.58,V 244.6,H 96.76,V 244.61,H 70,V 244.58,C 78.84 244.57 88.87 244.57 97.56 244.57,C 113.92 244.57 133.8 244.58 133.8 244.61,C 133.8 244.64 109.97999999999999 244.64 97.51 244.64,Z" clip-path="url('#clip5fc424xy')" style="opacity: 1; stroke: rgb(0, 0, 0); stroke-opacity: 0; fill: rgb(255, 165, 0); fill-opacity: 1; stroke-width: 0px;"/><path data-index="2" fill-rule="evenodd" d="M 70 244.54,H 133.8,V 244.54,H 106.62,V 244.57,H 96.16,V 244.54,H 70,V 244.54,Z" clip-path="url('#clip5fc424xy')" style="opacity: 1; stroke: rgb(0, 0, 0); stroke-opacity: 0; fill: rgb(255, 0, 0); fill-opacity: 1; stroke-width: 0px;"/><path data-index="3" fill-rule="evenodd" d="M 105.33 244.13,C 117.66 244.13 128.81 244.16 133.8 244.21,L 123.9 244.23,C 123.21000000000001 244.23 123.22 244.22 123.22 244.22,C 123.22 244.22 123.28 244.22 123.28 244.22,C 123.28 244.21 123.06 244.21 122.77000000000001 244.21,C 119.02000000000001 244.18 112.24000000000001 244.16 104.97 244.16,C 91.85 244.16 80.16 244.22 80.16 244.33,C 80.16 244.44 92.18 244.5 105.85 244.5,C 113.13 244.5 120.50999999999999 244.48 124.8 244.45,L 132.51 244.47,C 126.69 244.51 116.34 244.54 105.25999999999999 244.54,C 89.96000000000001 244.54 70 244.49 70 244.33,C 70 244.17 90.88 244.13 105.33 244.13,Z" clip-path="url('#clip5fc424xy')" style="opacity: 1; stroke: rgb(0, 0, 0); stroke-opacity: 0; fill: rgb(0, 0, 255); fill-opacity: 1; stroke-width: 0px;"/><path data-index="4" fill-rule="evenodd" d="M 197.6 245,H 133.8,V 244.51,H 160.98000000000002,V 240.14,H 171.44,V 244.51,H 197.6,V 245,Z" clip-path="url('#clip5fc424xy')" style="opacity: 1; stroke: rgb(0, 0, 0); stroke-opacity: 0; fill: rgb(255, 0, 0); fill-opacity: 1; stroke-width: 0px;"/><path data-index="5" fill-rule="evenodd" d="M 170.09 239.84,C 181.65 239.84 191.98000000000002 239.86 197.34 239.89,L 189.94 239.91,C 188.76 239.91 188.39 239.9 187.93 239.9,C 185.06 239.88 178.4 239.87 170.03 239.87,C 162.13 239.87 153.76 239.88 148.92000000000002 239.91,C 145.26 239.93 144.20999999999998 239.96 144.20999999999998 239.98,C 144.20999999999998 240.02 145.31 240.06 153.14 240.08,C 158.24 240.1 164.91 240.11 170.97 240.11,C 176.56 240.11 182.59 240.1 187.86 240.09,V 240.02,H 170.84,V 239.99,H 197.6,V 240.11,C 188.76 240.13 178.73000000000002 240.14 170.04000000000002 240.14,C 153.68 240.14 133.8 240.1 133.8 239.99,C 133.8 239.86 157.62 239.84 170.09 239.84,Z" clip-path="url('#clip5fc424xy')" style="opacity: 1; stroke: rgb(0, 0, 0); stroke-opacity: 0; fill: rgb(255, 165, 0); fill-opacity: 1; stroke-width: 0px;"/><path data-index="6" fill-rule="evenodd" d="M 169.13 239.05,C 181.45999999999998 239.05 192.61 239.11 197.6 239.2,L 187.7 239.24,C 187.01 239.24 187.01999999999998 239.23 187.01999999999998 239.23,C 187.01999999999998 239.23 187.07999999999998 239.22 187.07999999999998 239.22,C 187.07999999999998 239.21 186.86 239.21 186.57 239.21,C 182.82 239.15 176.04000000000002 239.12 168.76999999999998 239.12,C 155.65 239.12 143.95999999999998 239.23 143.95999999999998 239.44,C 143.95999999999998 239.65 155.98000000000002 239.76 169.65 239.76,C 176.93 239.76 184.31 239.73 188.6 239.67,L 196.31 239.71,C 190.49 239.79 180.14 239.84 169.06 239.84,C 153.76 239.84 133.8 239.74 133.8 239.44,C 133.8 239.14 154.68 239.05 169.13 239.05,Z" clip-path="url('#clip5fc424xy')" style="opacity: 1; stroke: rgb(0, 0, 0); stroke-opacity: 0; fill: rgb(0, 0, 255); fill-opacity: 1; stroke-width: 0px;"/><path data-index="7" fill-rule="evenodd" d="M 133.8 239.05,L 163.76 234.63,H 164.82,L 197.6 239.04,H 187.73000000000002,L 178.32999999999998 237.78,H 151.42000000000002,L 143.2 239.05,H 133.8,M 176.22 237.4,L 164.23000000000002 235.75,L 153.3 237.4,H 176.22,Z" clip-path="url('#clip5fc424xy')" style="opacity: 1; stroke: rgb(0, 0, 0); stroke-opacity: 0; fill: rgb(0, 128, 0); fill-opacity: 1; stroke-width: 0px;"/><path data-index="8" fill-rule="evenodd" d="M 325.2 211.27,L 295.24 245,H 294.18,L 261.4 211.31,H 271.27,L 280.66999999999996 220.98,H 307.58000000000004,L 315.8 211.27,H 325.2,M 282.78 223.87,L 294.77 236.48,L 305.7 223.87,H 282.78,Z" clip-path="url('#clip5fc424xy')" style="opacity: 1; stroke: rgb(0, 0, 0); stroke-opacity: 0; fill: rgb(0, 128, 0); fill-opacity: 1; stroke-width: 0px;"/><path data-index="9" fill-rule="evenodd" d="M 325.2 211.27,H 261.4,V 208.37,H 288.58000000000004,V 182.57,H 299.03999999999996,V 208.37,H 325.2,V 211.27,Z" clip-path="url('#clip5fc424xy')" style="opacity: 1; stroke: rgb(0, 0, 0); stroke-opacity: 0; fill: rgb(255, 0, 0); fill-opacity: 1; stroke-width: 0px;"/><path data-index="10" fill-rule="evenodd" d="M 289.87 182.57,C 277.53999999999996 182.57 266.39 181.42 261.4 179.63,L 271.3 178.85,C 271.99 178.92 271.98 179.05 271.98 179.08,C 271.98 179.14 271.91999999999996 179.2 271.91999999999996 179.26,C 271.91999999999996 179.37 272.14 179.43 272.43 179.51,C 276.18 180.55 282.96000000000004 181.24 290.23 181.24,C 303.35 181.24 315.03999999999996 179.03 315.03999999999996 175.09,C 315.03999999999996 171.07 303.02 168.8 289.35 168.8,C 282.07 168.8 274.69 169.47 270.4 170.61,L 262.69 169.8,C 268.51 168.28 278.86 167.36 289.94 167.36,C 305.24 167.36 325.2 169.2 325.2 174.94,C 325.2 180.88 304.32 182.57 289.87 182.57,Z" clip-path="url('#clip5fc424xy')" style="opacity: 1; stroke: rgb(0, 0, 0); stroke-opacity: 0; fill: rgb(0, 0, 255); fill-opacity: 1; stroke-width: 0px;"/><path data-index="11" fill-rule="evenodd" d="M 297.69 52.47,C 309.25 52.47 319.58000000000004 59.64 324.94 71.25,L 317.53999999999996 80.25999999999999,C 316.36 79.36 315.99 77.93 315.53 76.72,C 312.65999999999997 69.21000000000001 306 63.48 297.63 63.48,C 289.73 63.48 281.36 68.66 276.52 79.53999999999999,C 272.86 87.79 271.81 97.85 271.81 108.28,C 271.81 120.12 272.90999999999997 135.85 280.74 146.51,C 285.84000000000003 153.46 292.51 156.33 298.57 156.33,C 304.15999999999997 156.33 310.19 153.98 315.46000000000004 149.5,V 122.8,H 298.44,V 111.93,H 325.2,V 155.71,C 316.36 163.49 306.33000000000004 167.36 297.64 167.36,C 281.28 167.36 261.4 153.36 261.4 110.94,C 261.4 61.76 285.22 52.47 297.69 52.47,Z" clip-path="url('#clip5fc424xy')" style="opacity: 1; stroke: rgb(0, 0, 0); stroke-opacity: 0; fill: rgb(255, 165, 0); fill-opacity: 1; stroke-width: 0px;"/><path data-index="12" fill-rule="evenodd" d="M 389 244.51,L 359.04 245,H 357.98,L 325.2 244.51,H 335.07,L 344.47 244.65,H 371.38,L 379.6 244.51,H 389,M 346.58 244.69,L 358.57 244.88,L 369.5 244.69,H 346.58,Z" clip-path="url('#clip5fc424xy')" style="opacity: 1; stroke: rgb(0, 0, 0); stroke-opacity: 0; fill: rgb(0, 128, 0); fill-opacity: 1; stroke-width: 0px;"/><path data-index="13" fill-rule="evenodd" d="M 352.71 244.51,C 341.15 244.51 330.82 244.5 325.46000000000004 244.49,L 332.86 244.49,C 334.04 244.49 334.41 244.49 334.87 244.49,C 337.74 244.5 344.4 244.5 352.77 244.5,C 360.67 244.5 369.04 244.5 373.88 244.49,C 377.54 244.48 378.59 244.47 378.59 244.46,C 378.59 244.45 377.49 244.44 369.66 244.43,C 364.56 244.42 357.89 244.42 351.83 244.42,C 346.24 244.42 340.21 244.42 334.94 244.42,V 244.45,H 351.96,V 244.46,H 325.2,V 244.42,C 334.04 244.41 344.07 244.41 352.76 244.41,C 369.12 244.41 389 244.42 389 244.46,C 389 244.5 365.18 244.51 352.71 244.51,Z" clip-path="url('#clip5fc424xy')" style="opacity: 1; stroke: rgb(0, 0, 0); stroke-opacity: 0; fill: rgb(255, 165, 0); fill-opacity: 1; stroke-width: 0px;"/><path data-index="14" fill-rule="evenodd" d="M 325.2 244.21,H 389,V 244.23,H 361.82,V 244.41,H 351.36,V 244.23,H 325.2,V 244.21,Z" clip-path="url('#clip5fc424xy')" style="opacity: 1; stroke: rgb(0, 0, 0); stroke-opacity: 0; fill: rgb(255, 0, 0); fill-opacity: 1; stroke-width: 0px;"/><path data-index="15" fill-rule="evenodd" d="M 360.53 243.79,C 372.86 243.79 384.01 243.82 389 243.87,L 379.1 243.9,C 378.41 243.89 378.42 243.89 378.42 243.89,C 378.42 243.89 378.48 243.89 378.48 243.88,C 378.48 243.88 378.26 243.88 377.97 243.88,C 374.22 243.85 367.44 243.83 360.17 243.83,C 347.05 243.83 335.36 243.89 335.36 244,C 335.36 244.11 347.38 244.17 361.05 244.17,C 368.33 244.17 375.71 244.15 380 244.12,L 387.71 244.14,C 381.89 244.19 371.54 244.21 360.46 244.21,C 345.16 244.21 325.2 244.16 325.2 244,C 325.2 243.84 346.08 243.79 360.53 243.79,Z" clip-path="url('#clip5fc424xy')" style="opacity: 1; stroke: rgb(0, 0, 0); stroke-opacity: 0; fill: rgb(0, 0, 255); fill-opacity: 1; stroke-width: 0px;"/></g></g><g class="infolayer"><g class="g-gtitle"/><g class="g-xtitle"/><g class="g-ytitle"/><g class="annotation" data-index="0" style="opacity: 1;"><g class="annotation-text-g" transform="rotate(0,229.5,289)"><g class="cursor-pointer" transform="translate(188, 273)"><rect class="bg" x="0.5" y="0.5" width="82" height="31" style="stroke-width: 1px; stroke: rgb(0, 0, 0); stroke-opacity: 0; fill: rgb(0, 0, 0); fill-opacity: 0;"/><text class="annotation-text" text-anchor="middle" x="41.359375" y="23.5" style="font-family: Balto; font-size: 24px; fill: rgb(42, 63, 95); fill-opacity: 1; white-space: pre;">Position</text></g></g></g><g class="annotation" data-index="1" style="opacity: 1;"><g class="annotation-text-g" transform="rotate(-90,10,133)"><g class="cursor-pointer" transform="translate(-7, 117)"><rect class="bg" x="0.5" y="0.5" width="34" height="31" style="stroke-width: 1px; stroke: rgb(0, 0, 0); stroke-opacity: 0; fill: rgb(0, 0, 0); fill-opacity: 0;"/><text class="annotation-text" text-anchor="middle" x="17.34375" y="23.5" style="font-family: Balto; font-size: 24px; fill: rgb(42, 63, 95); fill-opacity: 1; white-space: pre;">RE</text></g></g></g></g></svg>