<?xml version="1.0" encoding="UTF-8" standalone="no"?>
<!DOCTYPE svg PUBLIC "-//W3C//DTD SVG 1.1//EN"
 "http://www.w3.org/Graphics/SVG/1.1/DTD/svg11.dtd">
<!-- Generated by graphviz version 2.47.1 (0)
 -->
<!-- Title: foo Pages: 1 -->
<svg width="296pt" height="84pt"
 viewBox="0.00 0.00 296.00 84.00" xmlns="http://www.w3.org/2000/svg" xmlns:xlink="http://www.w3.org/1999/xlink">
<g id="graph0" class="graph" transform="scale(1 1) rotate(0) translate(4 80)">
<title>foo</title>
<polygon fill="white" stroke="transparent" points="-4,4 -4,-80 292,-80 292,4 -4,4"/>
<!-- a -->
<g id="node1" class="node">
<title>a</title>
<polygon fill="none" stroke="black" points="79,-56 0,-56 0,-20 85,-20 85,-50 79,-56"/>
<polyline fill="none" stroke="black" points="79,-56 79,-50 "/>
<polyline fill="none" stroke="black" points="85,-50 79,-50 "/>
<text text-anchor="middle" x="42.5" y="-34.3" font-family="Times,serif" font-size="14.00">Source code</text>
</g>
<!-- b -->
<g id="node2" class="node">
<title>b</title>
<polygon fill="none" stroke="black" points="197,-76 121,-76 121,0 197,0 197,-76"/>
<text text-anchor="middle" x="159" y="-34.3" font-family="Times,serif" font-size="14.00">Interpreter</text>
</g>
<!-- a&#45;&gt;b -->
<g id="edge1" class="edge">
<title>a&#45;&gt;b</title>
<path fill="none" stroke="black" d="M85.16,-38C93.43,-38 102.18,-38 110.63,-38"/>
<polygon fill="black" stroke="black" points="110.73,-41.5 120.73,-38 110.73,-34.5 110.73,-41.5"/>
</g>
<!-- c -->
<g id="node3" class="node">
<title>c</title>
<polygon fill="none" stroke="black" points="288,-56 237,-56 233,-52 233,-20 284,-20 288,-24 288,-56"/>
<polyline fill="none" stroke="black" points="284,-52 233,-52 "/>
<polyline fill="none" stroke="black" points="284,-52 284,-20 "/>
<polyline fill="none" stroke="black" points="284,-52 288,-56 "/>
<text text-anchor="middle" x="260.5" y="-34.3" font-family="Times,serif" font-size="14.00">Output</text>
</g>
<!-- b&#45;&gt;c -->
<g id="edge2" class="edge">
<title>b&#45;&gt;c</title>
<path fill="none" stroke="black" d="M197.05,-38C205.44,-38 214.35,-38 222.73,-38"/>
<polygon fill="black" stroke="black" points="222.98,-41.5 232.98,-38 222.98,-34.5 222.98,-41.5"/>
</g>
</g>
</svg>
