<?xml version="1.0" encoding="UTF-8" standalone="no"?>
<!DOCTYPE svg PUBLIC "-//W3C//DTD SVG 1.1//EN"
 "http://www.w3.org/Graphics/SVG/1.1/DTD/svg11.dtd">
<!-- Generated by graphviz version 2.42.3 (20191010.1750)
 -->
<!-- Title: neutrality Pages: 1 -->
<svg width="182pt" height="188pt"
 viewBox="0.00 0.00 181.90 188.00" xmlns="http://www.w3.org/2000/svg" xmlns:xlink="http://www.w3.org/1999/xlink">
<g id="graph0" class="graph" transform="scale(1 1) rotate(0) translate(4 184)">
<title>neutrality</title>
<polygon fill="white" stroke="transparent" points="-4,4 -4,-184 177.9,-184 177.9,4 -4,4"/>
<!-- R -->
<g id="node1" class="node">
<title>R</title>
<ellipse fill="blue" stroke="blue" cx="86.48" cy="-90" rx="18" ry="18"/>
<text text-anchor="middle" x="86.48" y="-85.8" font-family="Times,serif" font-size="14.00" fill="white">R</text>
</g>
<!-- D -->
<g id="node2" class="node">
<title>D</title>
<ellipse fill="blue" stroke="blue" cx="154.95" cy="-112.25" rx="18" ry="18"/>
<text text-anchor="middle" x="154.95" y="-108.05" font-family="Times,serif" font-size="14.00" fill="white">D</text>
</g>
<!-- R&#45;&gt;D -->
<g id="edge1" class="edge">
<title>R&#45;&gt;D</title>
<path fill="none" stroke="black" d="M103.76,-95.61C111.08,-97.99 119.79,-100.82 127.93,-103.47"/>
<polygon fill="black" stroke="black" points="126.85,-106.8 137.44,-106.56 129.01,-100.14 126.85,-106.8"/>
</g>
<!-- E -->
<g id="node3" class="node">
<title>E</title>
<ellipse fill="blue" stroke="blue" cx="128.8" cy="-148.25" rx="18" ry="18"/>
<text text-anchor="middle" x="128.8" y="-144.05" font-family="Times,serif" font-size="14.00" fill="white">E</text>
</g>
<!-- R&#45;&gt;E -->
<g id="edge2" class="edge">
<title>R&#45;&gt;E</title>
<path fill="none" stroke="black" d="M97.16,-104.7C101.63,-110.86 106.95,-118.17 111.93,-125.03"/>
<polygon fill="black" stroke="black" points="109.26,-127.32 117.97,-133.35 114.93,-123.21 109.26,-127.32"/>
</g>
<!-- H -->
<g id="node4" class="node">
<title>H</title>
<ellipse fill="blue" stroke="blue" cx="86.48" cy="-162" rx="18" ry="18"/>
<text text-anchor="middle" x="86.48" y="-157.8" font-family="Times,serif" font-size="14.00" fill="white">H</text>
</g>
<!-- R&#45;&gt;H -->
<g id="edge3" class="edge">
<title>R&#45;&gt;H</title>
<path fill="none" stroke="black" d="M86.48,-108.17C86.48,-115.87 86.48,-125.03 86.48,-133.58"/>
<polygon fill="black" stroke="black" points="82.98,-133.59 86.48,-143.59 89.98,-133.59 82.98,-133.59"/>
</g>
<!-- K -->
<g id="node5" class="node">
<title>K</title>
<ellipse fill="blue" stroke="blue" cx="44.16" cy="-148.25" rx="18" ry="18"/>
<text text-anchor="middle" x="44.16" y="-144.05" font-family="Times,serif" font-size="14.00" fill="white">K</text>
</g>
<!-- R&#45;&gt;K -->
<g id="edge4" class="edge">
<title>R&#45;&gt;K</title>
<path fill="none" stroke="black" d="M75.8,-104.7C71.32,-110.86 66.01,-118.17 61.02,-125.03"/>
<polygon fill="black" stroke="black" points="58.02,-123.21 54.98,-133.35 63.69,-127.32 58.02,-123.21"/>
</g>
<!-- A -->
<g id="node6" class="node">
<title>A</title>
<ellipse fill="#333335" fill-opacity="0.333333" stroke="#333335" stroke-opacity="0.333333" cx="18" cy="-112.25" rx="18" ry="18"/>
<text text-anchor="middle" x="18" y="-108.05" font-family="Times,serif" font-size="14.00">A</text>
</g>
<!-- R&#45;&gt;A -->
<g id="edge5" class="edge">
<title>R&#45;&gt;A</title>
<path fill="none" stroke="black" stroke-dasharray="1,5" d="M69.2,-95.61C58.9,-98.96 45.85,-103.2 35.51,-106.56"/>
</g>
<!-- G -->
<g id="node7" class="node">
<title>G</title>
<ellipse fill="#333335" fill-opacity="0.333333" stroke="#333335" stroke-opacity="0.333333" cx="18" cy="-67.75" rx="18" ry="18"/>
<text text-anchor="middle" x="18" y="-63.55" font-family="Times,serif" font-size="14.00">G</text>
</g>
<!-- R&#45;&gt;G -->
<g id="edge6" class="edge">
<title>R&#45;&gt;G</title>
<path fill="none" stroke="black" stroke-dasharray="1,5" d="M69.2,-84.39C58.9,-81.04 45.85,-76.8 35.51,-73.44"/>
</g>
<!-- P -->
<g id="node8" class="node">
<title>P</title>
<ellipse fill="#333335" fill-opacity="0.333333" stroke="#333335" stroke-opacity="0.333333" cx="44.16" cy="-31.75" rx="18" ry="18"/>
<text text-anchor="middle" x="44.16" y="-27.55" font-family="Times,serif" font-size="14.00">P</text>
</g>
<!-- R&#45;&gt;P -->
<g id="edge7" class="edge">
<title>R&#45;&gt;P</title>
<path fill="none" stroke="black" stroke-dasharray="1,5" d="M75.8,-75.3C69.43,-66.54 61.37,-55.44 54.98,-46.65"/>
</g>
<!-- Q -->
<g id="node9" class="node">
<title>Q</title>
<ellipse fill="#333335" fill-opacity="0.333333" stroke="#333335" stroke-opacity="0.333333" cx="86.48" cy="-18" rx="18" ry="18"/>
<text text-anchor="middle" x="86.48" y="-13.8" font-family="Times,serif" font-size="14.00">Q</text>
</g>
<!-- R&#45;&gt;Q -->
<g id="edge8" class="edge">
<title>R&#45;&gt;Q</title>
<path fill="none" stroke="black" stroke-dasharray="1,5" d="M86.48,-71.83C86.48,-61 86.48,-47.29 86.48,-36.41"/>
</g>
<!-- W -->
<g id="node10" class="node">
<title>W</title>
<ellipse fill="#333335" fill-opacity="0.333333" stroke="#333335" stroke-opacity="0.333333" cx="128.8" cy="-31.75" rx="18.41" ry="18.41"/>
<text text-anchor="middle" x="128.8" y="-27.55" font-family="Times,serif" font-size="14.00">W</text>
</g>
<!-- R&#45;&gt;W -->
<g id="edge9" class="edge">
<title>R&#45;&gt;W</title>
<path fill="none" stroke="black" stroke-dasharray="1,5" d="M97.16,-75.3C103.42,-66.67 111.33,-55.79 117.68,-47.06"/>
</g>
<!-- ellipsis -->
<g id="node11" class="node">
<title>ellipsis</title>
<ellipse fill="#333335" fill-opacity="0.333333" stroke="#333335" stroke-opacity="0.333333" cx="154.95" cy="-67.75" rx="18.9" ry="18.9"/>
<text text-anchor="middle" x="154.95" y="-63.55" font-family="Times,serif" font-size="14.00">…</text>
</g>
<!-- R&#45;&gt;ellipsis -->
<g id="edge10" class="edge">
<title>R&#45;&gt;ellipsis</title>
<path fill="none" stroke="black" stroke-dasharray="1,5" d="M103.76,-84.39C113.74,-81.14 126.3,-77.06 136.48,-73.75"/>
</g>
</g>
</svg>
