<?xml version="1.0" encoding="UTF-8" standalone="no"?>
<!DOCTYPE svg PUBLIC "-//W3C//DTD SVG 1.1//EN"
 "http://www.w3.org/Graphics/SVG/1.1/DTD/svg11.dtd">
<!-- Generated by graphviz version 2.42.3 (20191010.1750)
 -->
<!-- Title: point_mutants Pages: 1 -->
<svg width="222pt" height="204pt"
 viewBox="0.00 0.00 222.43 204.43" xmlns="http://www.w3.org/2000/svg" xmlns:xlink="http://www.w3.org/1999/xlink">
<g id="graph0" class="graph" transform="scale(1 1) rotate(0) translate(4 200.43)">
<title>point_mutants</title>
<polygon fill="white" stroke="transparent" points="-4,4 -4,-200.43 218.43,-200.43 218.43,4 -4,4"/>
<!-- A -->
<g id="node1" class="node">
<title>A</title>
<text text-anchor="middle" x="107.21" y="-14.3" font-family="Times,serif" font-size="14.00">A</text>
</g>
<!-- C -->
<g id="node2" class="node">
<title>C</title>
<text text-anchor="middle" x="187.43" y="-94.51" font-family="Times,serif" font-size="14.00">C</text>
</g>
<!-- A&#45;&gt;C -->
<g id="edge1" class="edge">
<title>A&#45;&gt;C</title>
<path fill="none" stroke="black" d="M132.54,-43.33C141.96,-52.74 152.64,-63.43 162.06,-72.85"/>
<polygon fill="black" stroke="black" points="134.96,-40.8 125.42,-36.2 130.01,-45.75 134.96,-40.8"/>
<polygon fill="black" stroke="black" points="159.75,-75.49 169.3,-80.08 164.7,-70.54 159.75,-75.49"/>
</g>
<!-- G -->
<g id="node3" class="node">
<title>G</title>
<text text-anchor="middle" x="107.21" y="-174.73" font-family="Times,serif" font-size="14.00">G</text>
</g>
<!-- A&#45;&gt;G -->
<g id="edge2" class="edge">
<title>A&#45;&gt;G</title>
<path fill="none" stroke="blue" d="M107.21,-46.39C107.21,-75.52 107.21,-120.59 107.21,-149.8"/>
<polygon fill="blue" stroke="blue" points="110.71,-46.09 107.21,-36.09 103.71,-46.09 110.71,-46.09"/>
<polygon fill="blue" stroke="blue" points="103.71,-150.16 107.21,-160.16 110.71,-150.16 103.71,-150.16"/>
</g>
<!-- T -->
<g id="node4" class="node">
<title>T</title>
<text text-anchor="middle" x="27" y="-94.51" font-family="Times,serif" font-size="14.00">T</text>
</g>
<!-- A&#45;&gt;T -->
<g id="edge3" class="edge">
<title>A&#45;&gt;T</title>
<path fill="none" stroke="black" d="M81.89,-43.33C72.47,-52.74 61.79,-63.43 52.37,-72.85"/>
<polygon fill="black" stroke="black" points="84.42,-45.75 89.01,-36.2 79.47,-40.8 84.42,-45.75"/>
<polygon fill="black" stroke="black" points="49.73,-70.54 45.13,-80.08 54.68,-75.49 49.73,-70.54"/>
</g>
<!-- C&#45;&gt;G -->
<g id="edge4" class="edge">
<title>C&#45;&gt;G</title>
<path fill="none" stroke="black" d="M162.1,-123.54C152.69,-132.96 142,-143.64 132.58,-153.06"/>
<polygon fill="black" stroke="black" points="164.63,-125.96 169.23,-116.42 159.68,-121.01 164.63,-125.96"/>
<polygon fill="black" stroke="black" points="129.94,-150.75 125.34,-160.3 134.89,-155.7 129.94,-150.75"/>
</g>
<!-- C&#45;&gt;T -->
<g id="edge5" class="edge">
<title>C&#45;&gt;T</title>
<path fill="none" stroke="blue" d="M149.93,-98.21C124.11,-98.21 89.96,-98.21 64.2,-98.21"/>
<polygon fill="blue" stroke="blue" points="150.21,-101.71 160.21,-98.21 150.21,-94.71 150.21,-101.71"/>
<polygon fill="blue" stroke="blue" points="64.08,-94.71 54.08,-98.21 64.08,-101.71 64.08,-94.71"/>
</g>
<!-- G&#45;&gt;T -->
<g id="edge6" class="edge">
<title>G&#45;&gt;T</title>
<path fill="none" stroke="black" d="M81.89,-153.1C72.47,-143.69 61.79,-133 52.37,-123.58"/>
<polygon fill="black" stroke="black" points="79.47,-155.63 89.01,-160.23 84.42,-150.68 79.47,-155.63"/>
<polygon fill="black" stroke="black" points="54.68,-120.94 45.13,-116.34 49.73,-125.89 54.68,-120.94"/>
</g>
</g>
</svg>
