<?xml version="1.0" encoding="UTF-8" standalone="no"?>
<!DOCTYPE svg PUBLIC "-//W3C//DTD SVG 1.1//EN"
 "http://www.w3.org/Graphics/SVG/1.1/DTD/svg11.dtd">
<!-- Generated by graphviz version 2.43.0 (0)
 -->
<!-- Title: phylo_workflow Pages: 1 -->
<svg width="312pt" height="593pt"
 viewBox="0.00 0.00 312.22 593.00" xmlns="http://www.w3.org/2000/svg" xmlns:xlink="http://www.w3.org/1999/xlink">
<g id="graph0" class="graph" transform="scale(1 1) rotate(0) translate(4 589)">
<title>phylo_workflow</title>
<polygon fill="white" stroke="transparent" points="-4,4 -4,-589 308.22,-589 308.22,4 -4,4"/>
<g id="clust1" class="cluster">
<title>cluster_preprocess</title>
<polygon fill="lightgreen" stroke="lightgreen" points="8,-264.5 8,-521 130,-521 130,-264.5 8,-264.5"/>
</g>
<g id="clust2" class="cluster">
<title>cluster_decide_model</title>
<polygon fill="#cdc9a5" stroke="#cdc9a5" points="168,-114 168,-380 294,-380 294,-114 168,-114"/>
</g>
<g id="clust3" class="cluster">
<title>cluster_fit_model</title>
<polygon fill="lightblue" stroke="lightblue" points="62,-8 62,-223 160,-223 160,-8 62,-8"/>
</g>
<!-- A -->
<g id="node1" class="node">
<title>A</title>
<polygon fill="white" stroke="white" points="121.5,-513 16.5,-513 16.5,-408 121.5,-408 121.5,-513"/>
<text text-anchor="middle" x="69" y="-471.8" font-family="Times,serif" font-size="14.00">Sample</text>
<text text-anchor="middle" x="69" y="-456.8" font-family="Times,serif" font-size="14.00">Homologous</text>
<text text-anchor="middle" x="69" y="-441.8" font-family="Times,serif" font-size="14.00">Sequences</text>
</g>
<!-- B -->
<g id="node2" class="node">
<title>B</title>
<polygon fill="white" stroke="white" points="114,-362.5 24,-362.5 24,-272.5 114,-272.5 114,-362.5"/>
<text text-anchor="middle" x="69" y="-328.8" font-family="Times,serif" font-size="14.00">Multiple</text>
<text text-anchor="middle" x="69" y="-313.8" font-family="Times,serif" font-size="14.00">Sequence</text>
<text text-anchor="middle" x="69" y="-298.8" font-family="Times,serif" font-size="14.00">Alignment</text>
</g>
<!-- A&#45;&gt;B -->
<g id="edge1" class="edge">
<title>A&#45;&gt;B</title>
<path fill="none" stroke="black" d="M69,-407.8C69,-396.48 69,-384.47 69,-373.05"/>
<polygon fill="black" stroke="black" points="72.5,-372.77 69,-362.77 65.5,-372.77 72.5,-372.77"/>
</g>
<!-- C -->
<g id="node3" class="node">
<title>C</title>
<polygon fill="white" stroke="white" points="285.5,-372 176.5,-372 176.5,-263 285.5,-263 285.5,-372"/>
<text text-anchor="middle" x="231" y="-328.8" font-family="Times,serif" font-size="14.00">Choose</text>
<text text-anchor="middle" x="231" y="-313.8" font-family="Times,serif" font-size="14.00">Phylogenetic</text>
<text text-anchor="middle" x="231" y="-298.8" font-family="Times,serif" font-size="14.00">Method</text>
</g>
<!-- A&#45;&gt;C -->
<g id="edge4" class="edge">
<title>A&#45;&gt;C</title>
<path fill="none" stroke="black" d="M130,-406.41C139.92,-397.78 150.26,-388.77 160.39,-379.96"/>
<polygon fill="black" stroke="black" points="162.76,-382.54 168,-373.33 158.16,-377.26 162.76,-382.54"/>
</g>
<!-- D -->
<g id="node4" class="node">
<title>D</title>
<polygon fill="white" stroke="white" points="284.5,-227 179.5,-227 179.5,-122 284.5,-122 284.5,-227"/>
<text text-anchor="middle" x="232" y="-185.8" font-family="Times,serif" font-size="14.00">Choose</text>
<text text-anchor="middle" x="232" y="-170.8" font-family="Times,serif" font-size="14.00">Substitution</text>
<text text-anchor="middle" x="232" y="-155.8" font-family="Times,serif" font-size="14.00">Model</text>
</g>
<!-- C&#45;&gt;D -->
<g id="edge2" class="edge">
<title>C&#45;&gt;D</title>
<path fill="none" stroke="black" d="M231.38,-262.79C231.44,-254.49 231.5,-245.86 231.56,-237.4"/>
<polygon fill="black" stroke="black" points="235.06,-237.22 231.63,-227.2 228.06,-237.17 235.06,-237.22"/>
</g>
<!-- E -->
<g id="node5" class="node">
<title>E</title>
<polygon fill="white" stroke="white" points="151.5,-215 70.5,-215 70.5,-134 151.5,-134 151.5,-215"/>
<text text-anchor="middle" x="111" y="-185.8" font-family="Times,serif" font-size="14.00">Estimate</text>
<text text-anchor="middle" x="111" y="-170.8" font-family="Times,serif" font-size="14.00">Model &amp;</text>
<text text-anchor="middle" x="111" y="-155.8" font-family="Times,serif" font-size="14.00">Tree</text>
</g>
<!-- C&#45;&gt;E -->
<g id="edge5" class="edge">
<title>C&#45;&gt;E</title>
<path fill="none" stroke="black" d="M168,-242.48C164.7,-238.59 161.4,-234.72 158.16,-230.91"/>
<polygon fill="black" stroke="black" points="160.57,-228.35 151.43,-223 155.24,-232.88 160.57,-228.35"/>
</g>
<!-- F -->
<g id="node6" class="node">
<title>F</title>
<polygon fill="white" stroke="white" points="146,-86 76,-86 76,-16 146,-16 146,-86"/>
<text text-anchor="middle" x="111" y="-54.8" font-family="Times,serif" font-size="14.00">Display</text>
<text text-anchor="middle" x="111" y="-39.8" font-family="Times,serif" font-size="14.00">Results</text>
</g>
<!-- E&#45;&gt;F -->
<g id="edge3" class="edge">
<title>E&#45;&gt;F</title>
<path fill="none" stroke="black" d="M111,-133.72C111,-121.71 111,-108.47 111,-96.19"/>
<polygon fill="black" stroke="black" points="114.5,-96.16 111,-86.16 107.5,-96.16 114.5,-96.16"/>
</g>
<!-- Db -->
<g id="node7" class="node">
<title>Db</title>
<polygon fill="white" stroke="transparent" points="246.5,-585 163.5,-585 163.5,-549 246.5,-549 246.5,-585"/>
<text text-anchor="middle" x="205" y="-563.3" font-family="Times,serif" font-size="14.00">Database</text>
</g>
<!-- Db&#45;&gt;A -->
<g id="edge6" class="edge">
<title>Db&#45;&gt;A</title>
<path fill="none" stroke="black" d="M182.85,-548.98C168.36,-537.84 148.67,-522.72 129.74,-508.17"/>
<polygon fill="black" stroke="black" points="131.76,-505.31 121.69,-501.99 127.49,-510.86 131.76,-505.31"/>
</g>
<!-- Db&#45;&gt;D -->
<!-- Sft -->
<g id="node8" class="node">
<title>Sft</title>
<polygon fill="white" stroke="transparent" points="245.5,-478.5 164.5,-478.5 164.5,-442.5 245.5,-442.5 245.5,-478.5"/>
<text text-anchor="middle" x="205" y="-456.8" font-family="Times,serif" font-size="14.00">Software</text>
</g>
<!-- Db&#45;&gt;Sft -->
<!-- Sft&#45;&gt;C -->
<g id="edge9" class="edge">
<title>Sft&#45;&gt;C</title>
<path fill="none" stroke="black" d="M208.14,-442.49C210.92,-427.37 215.18,-404.3 219.27,-382.13"/>
<polygon fill="black" stroke="black" points="222.75,-382.52 221.13,-372.05 215.87,-381.25 222.75,-382.52"/>
</g>
<!-- Sft&#45;&gt;E -->
</g>
</svg>
