<?xml version="1.0" encoding="UTF-8" standalone="no"?>
<!DOCTYPE svg PUBLIC "-//W3C//DTD SVG 1.1//EN"
 "http://www.w3.org/Graphics/SVG/1.1/DTD/svg11.dtd">
<!-- Generated by graphviz version 2.43.0 (0)
 -->
<!-- Title: namespace Pages: 1 -->
<svg width="403pt" height="298pt"
 viewBox="0.00 0.00 402.50 298.00" xmlns="http://www.w3.org/2000/svg" xmlns:xlink="http://www.w3.org/1999/xlink">
<g id="graph0" class="graph" transform="scale(1 1) rotate(0) translate(4 294)">
<title>namespace</title>
<polygon fill="white" stroke="transparent" points="-4,4 -4,-294 398.5,-294 398.5,4 -4,4"/>
<!-- a -->
<g id="node1" class="node">
<title>a</title>
<polygon fill="none" stroke="black" points="394.5,-290 34.5,-290 34.5,-254 394.5,-254 394.5,-290"/>
<text text-anchor="middle" x="214.5" y="-268.3" font-family="Times,serif" font-size="14.00">Namespaces</text>
</g>
<!-- l -->
<g id="node2" class="node">
<title>l</title>
<polygon fill="none" stroke="black" points="131.5,-218 35.5,-218 35.5,-122 131.5,-122 131.5,-218"/>
<text text-anchor="middle" x="83.5" y="-173.8" font-family="Times,serif" font-size="14.00">Local</text>
<text text-anchor="middle" x="83.5" y="-158.8" font-family="Times,serif" font-size="14.00">namespace</text>
</g>
<!-- a&#45;&gt;l -->
<g id="edge1" class="edge">
<title>a&#45;&gt;l</title>
<path fill="none" stroke="black" d="M83.5,-253.76C83.5,-253.76 83.5,-228.28 83.5,-228.28"/>
<polygon fill="black" stroke="black" points="87,-228.28 83.5,-218.28 80,-228.28 87,-228.28"/>
</g>
<!-- g -->
<g id="node4" class="node">
<title>g</title>
<polygon fill="none" stroke="black" points="262.5,-218 166.5,-218 166.5,-122 262.5,-122 262.5,-218"/>
<text text-anchor="middle" x="214.5" y="-173.8" font-family="Times,serif" font-size="14.00">Global</text>
<text text-anchor="middle" x="214.5" y="-158.8" font-family="Times,serif" font-size="14.00">namespace</text>
</g>
<!-- a&#45;&gt;g -->
<g id="edge3" class="edge">
<title>a&#45;&gt;g</title>
<path fill="none" stroke="black" d="M214.5,-253.76C214.5,-253.76 214.5,-228.28 214.5,-228.28"/>
<polygon fill="black" stroke="black" points="218,-228.28 214.5,-218.28 211,-228.28 218,-228.28"/>
</g>
<!-- b -->
<g id="node6" class="node">
<title>b</title>
<polygon fill="none" stroke="black" points="384.5,-218 288.5,-218 288.5,-122 384.5,-122 384.5,-218"/>
<text text-anchor="middle" x="336.5" y="-173.8" font-family="Times,serif" font-size="14.00">Built&#45;in</text>
<text text-anchor="middle" x="336.5" y="-158.8" font-family="Times,serif" font-size="14.00">namespace</text>
</g>
<!-- a&#45;&gt;b -->
<g id="edge5" class="edge">
<title>a&#45;&gt;b</title>
<path fill="none" stroke="black" d="M336.5,-253.76C336.5,-253.76 336.5,-228.28 336.5,-228.28"/>
<polygon fill="black" stroke="black" points="340,-228.28 336.5,-218.28 333,-228.28 340,-228.28"/>
</g>
<!-- ln -->
<g id="node3" class="node">
<title>ln</title>
<polygon fill="none" stroke="black" points="133,-86 0,-86 0,0 133,0 133,-86"/>
<text text-anchor="middle" x="66.5" y="-54.3" font-family="Times,serif" font-size="14.00">Specific to</text>
<text text-anchor="middle" x="66.5" y="-39.3" font-family="Times,serif" font-size="14.00">current function</text>
<text text-anchor="middle" x="66.5" y="-24.3" font-family="Times,serif" font-size="14.00">or class method</text>
</g>
<!-- l&#45;&gt;ln -->
<g id="edge2" class="edge">
<title>l&#45;&gt;ln</title>
<path fill="none" stroke="black" d="M83.5,-121.99C83.5,-121.99 83.5,-96.07 83.5,-96.07"/>
<polygon fill="black" stroke="black" points="87,-96.07 83.5,-86.07 80,-96.07 87,-96.07"/>
</g>
<!-- gn -->
<g id="node5" class="node">
<title>gn</title>
<polygon fill="none" stroke="black" points="278,-86 151,-86 151,0 278,0 278,-86"/>
<text text-anchor="middle" x="214.5" y="-46.8" font-family="Times,serif" font-size="14.00">Specific to</text>
<text text-anchor="middle" x="214.5" y="-31.8" font-family="Times,serif" font-size="14.00">current module</text>
</g>
<!-- g&#45;&gt;gn -->
<g id="edge4" class="edge">
<title>g&#45;&gt;gn</title>
<path fill="none" stroke="black" d="M214.5,-121.99C214.5,-121.99 214.5,-96.07 214.5,-96.07"/>
<polygon fill="black" stroke="black" points="218,-96.07 214.5,-86.07 211,-96.07 218,-96.07"/>
</g>
<!-- bn -->
<g id="node7" class="node">
<title>bn</title>
<polygon fill="none" stroke="black" points="394.5,-86 296.5,-86 296.5,0 394.5,0 394.5,-86"/>
<text text-anchor="middle" x="345.5" y="-46.8" font-family="Times,serif" font-size="14.00">Global to</text>
<text text-anchor="middle" x="345.5" y="-31.8" font-family="Times,serif" font-size="14.00">all modules</text>
</g>
<!-- b&#45;&gt;bn -->
<g id="edge6" class="edge">
<title>b&#45;&gt;bn</title>
<path fill="none" stroke="black" d="M340.5,-121.99C340.5,-121.99 340.5,-96.07 340.5,-96.07"/>
<polygon fill="black" stroke="black" points="344,-96.07 340.5,-86.07 337,-96.07 344,-96.07"/>
</g>
</g>
</svg>
