<?xml version="1.0" encoding="UTF-8" standalone="no"?>
<!DOCTYPE svg PUBLIC "-//W3C//DTD SVG 1.1//EN"
 "http://www.w3.org/Graphics/SVG/1.1/DTD/svg11.dtd">
<!-- Generated by graphviz version 2.42.3 (20191010.1750)
 -->
<!-- Title: namespace Pages: 1 -->
<svg width="368pt" height="279pt"
 viewBox="0.00 0.00 368.00 279.41" xmlns="http://www.w3.org/2000/svg" xmlns:xlink="http://www.w3.org/1999/xlink">
<g id="graph0" class="graph" transform="scale(1 1) rotate(0) translate(4 275.41)">
<title>namespace</title>
<polygon fill="white" stroke="transparent" points="-4,4 -4,-275.41 364,-275.41 364,4 -4,4"/>
<!-- a -->
<g id="node1" class="node">
<title>a</title>
<polygon fill="none" stroke="black" points="360,-271.41 0,-271.41 0,-235.41 360,-235.41 360,-271.41"/>
<text text-anchor="middle" x="180" y="-249.21" font-family="Times,serif" font-size="14.00">Namespaces</text>
</g>
<!-- l -->
<g id="node2" class="node">
<title>l</title>
<polygon fill="none" stroke="black" points="110.91,-199.61 33.09,-199.61 33.09,-121.8 110.91,-121.8 110.91,-199.61"/>
<text text-anchor="middle" x="72" y="-163.5" font-family="Times,serif" font-size="14.00">Local</text>
<text text-anchor="middle" x="72" y="-149.5" font-family="Times,serif" font-size="14.00">namespace</text>
</g>
<!-- a&#45;&gt;l -->
<g id="edge1" class="edge">
<title>a&#45;&gt;l</title>
<path fill="none" stroke="black" d="M72,-235.09C72,-235.09 72,-209.68 72,-209.68"/>
<polygon fill="black" stroke="black" points="75.5,-209.68 72,-199.68 68.5,-209.68 75.5,-209.68"/>
</g>
<!-- g -->
<g id="node4" class="node">
<title>g</title>
<polygon fill="none" stroke="black" points="218.91,-199.61 141.09,-199.61 141.09,-121.8 218.91,-121.8 218.91,-199.61"/>
<text text-anchor="middle" x="180" y="-163.5" font-family="Times,serif" font-size="14.00">Global</text>
<text text-anchor="middle" x="180" y="-149.5" font-family="Times,serif" font-size="14.00">namespace</text>
</g>
<!-- a&#45;&gt;g -->
<g id="edge3" class="edge">
<title>a&#45;&gt;g</title>
<path fill="none" stroke="black" d="M180,-235.09C180,-235.09 180,-209.68 180,-209.68"/>
<polygon fill="black" stroke="black" points="183.5,-209.68 180,-199.68 176.5,-209.68 183.5,-209.68"/>
</g>
<!-- b -->
<g id="node6" class="node">
<title>b</title>
<polygon fill="none" stroke="black" points="320.91,-199.61 243.09,-199.61 243.09,-121.8 320.91,-121.8 320.91,-199.61"/>
<text text-anchor="middle" x="282" y="-163.5" font-family="Times,serif" font-size="14.00">Built&#45;in</text>
<text text-anchor="middle" x="282" y="-149.5" font-family="Times,serif" font-size="14.00">namespace</text>
</g>
<!-- a&#45;&gt;b -->
<g id="edge5" class="edge">
<title>a&#45;&gt;b</title>
<path fill="none" stroke="black" d="M282,-235.09C282,-235.09 282,-209.68 282,-209.68"/>
<polygon fill="black" stroke="black" points="285.5,-209.68 282,-199.68 278.5,-209.68 285.5,-209.68"/>
</g>
<!-- ln -->
<g id="node3" class="node">
<title>ln</title>
<polygon fill="none" stroke="black" points="111.8,-86 6.2,-86 6.2,0 111.8,0 111.8,-86"/>
<text text-anchor="middle" x="59" y="-52.8" font-family="Times,serif" font-size="14.00">Specific to</text>
<text text-anchor="middle" x="59" y="-38.8" font-family="Times,serif" font-size="14.00">current function</text>
<text text-anchor="middle" x="59" y="-24.8" font-family="Times,serif" font-size="14.00">or class method</text>
</g>
<!-- l&#45;&gt;ln -->
<g id="edge2" class="edge">
<title>l&#45;&gt;ln</title>
<path fill="none" stroke="black" d="M72,-121.84C72,-121.84 72,-96.3 72,-96.3"/>
<polygon fill="black" stroke="black" points="75.5,-96.3 72,-86.3 68.5,-96.3 75.5,-96.3"/>
</g>
<!-- gn -->
<g id="node5" class="node">
<title>gn</title>
<polygon fill="none" stroke="black" points="230.63,-86 129.37,-86 129.37,0 230.63,0 230.63,-86"/>
<text text-anchor="middle" x="180" y="-45.8" font-family="Times,serif" font-size="14.00">Specific to</text>
<text text-anchor="middle" x="180" y="-31.8" font-family="Times,serif" font-size="14.00">current module</text>
</g>
<!-- g&#45;&gt;gn -->
<g id="edge4" class="edge">
<title>g&#45;&gt;gn</title>
<path fill="none" stroke="black" d="M180,-121.84C180,-121.84 180,-96.3 180,-96.3"/>
<polygon fill="black" stroke="black" points="183.5,-96.3 180,-86.3 176.5,-96.3 183.5,-96.3"/>
</g>
<!-- bn -->
<g id="node7" class="node">
<title>bn</title>
<polygon fill="none" stroke="black" points="329.43,-86 248.57,-86 248.57,0 329.43,0 329.43,-86"/>
<text text-anchor="middle" x="289" y="-45.8" font-family="Times,serif" font-size="14.00">Global to</text>
<text text-anchor="middle" x="289" y="-31.8" font-family="Times,serif" font-size="14.00">all modules</text>
</g>
<!-- b&#45;&gt;bn -->
<g id="edge6" class="edge">
<title>b&#45;&gt;bn</title>
<path fill="none" stroke="black" d="M284.62,-121.84C284.62,-121.84 284.62,-96.3 284.62,-96.3"/>
<polygon fill="black" stroke="black" points="288.12,-96.3 284.62,-86.3 281.12,-96.3 288.12,-96.3"/>
</g>
</g>
</svg>
