<?xml version="1.0" encoding="UTF-8" standalone="no"?>
<!DOCTYPE svg PUBLIC "-//W3C//DTD SVG 1.1//EN"
 "http://www.w3.org/Graphics/SVG/1.1/DTD/svg11.dtd">
<!-- Generated by graphviz version 2.43.0 (0)
 -->
<!-- Title: neutrality Pages: 1 -->
<svg width="183pt" height="189pt"
 viewBox="0.00 0.00 183.30 189.05" xmlns="http://www.w3.org/2000/svg" xmlns:xlink="http://www.w3.org/1999/xlink">
<g id="graph0" class="graph" transform="scale(1 1) rotate(0) translate(4 185.05)">
<title>neutrality</title>
<polygon fill="white" stroke="transparent" points="-4,4 -4,-185.05 179.3,-185.05 179.3,4 -4,4"/>
<!-- R -->
<g id="node1" class="node">
<title>R</title>
<ellipse fill="blue" stroke="blue" cx="86.67" cy="-90.2" rx="18" ry="18"/>
<text text-anchor="middle" x="86.67" y="-86.5" font-family="Times,serif" font-size="14.00" fill="white">R</text>
</g>
<!-- D -->
<g id="node2" class="node">
<title>D</title>
<ellipse fill="blue" stroke="blue" cx="155.15" cy="-112.45" rx="18.4" ry="18.4"/>
<text text-anchor="middle" x="155.15" y="-108.75" font-family="Times,serif" font-size="14.00" fill="white">D</text>
</g>
<!-- R&#45;&gt;D -->
<g id="edge1" class="edge">
<title>R&#45;&gt;D</title>
<path fill="none" stroke="black" d="M103.95,-95.81C111.28,-98.19 119.99,-101.02 128.12,-103.67"/>
<polygon fill="black" stroke="black" points="127.05,-107 137.64,-106.76 129.21,-100.34 127.05,-107"/>
</g>
<!-- E -->
<g id="node3" class="node">
<title>E</title>
<ellipse fill="blue" stroke="blue" cx="128.99" cy="-148.45" rx="18" ry="18"/>
<text text-anchor="middle" x="128.99" y="-144.75" font-family="Times,serif" font-size="14.00" fill="white">E</text>
</g>
<!-- R&#45;&gt;E -->
<g id="edge2" class="edge">
<title>R&#45;&gt;E</title>
<path fill="none" stroke="black" d="M97.35,-104.9C101.83,-111.06 107.14,-118.37 112.13,-125.23"/>
<polygon fill="black" stroke="black" points="109.46,-127.52 118.17,-133.55 115.13,-123.4 109.46,-127.52"/>
</g>
<!-- H -->
<g id="node4" class="node">
<title>H</title>
<ellipse fill="blue" stroke="blue" cx="86.67" cy="-162.2" rx="18.7" ry="18.7"/>
<text text-anchor="middle" x="86.67" y="-158.5" font-family="Times,serif" font-size="14.00" fill="white">H</text>
</g>
<!-- R&#45;&gt;H -->
<g id="edge3" class="edge">
<title>R&#45;&gt;H</title>
<path fill="none" stroke="black" d="M86.67,-108.37C86.67,-115.87 86.67,-124.75 86.67,-133.11"/>
<polygon fill="black" stroke="black" points="83.17,-133.28 86.67,-143.28 90.17,-133.28 83.17,-133.28"/>
</g>
<!-- K -->
<g id="node5" class="node">
<title>K</title>
<ellipse fill="blue" stroke="blue" cx="44.35" cy="-148.45" rx="18" ry="18"/>
<text text-anchor="middle" x="44.35" y="-144.75" font-family="Times,serif" font-size="14.00" fill="white">K</text>
</g>
<!-- R&#45;&gt;K -->
<g id="edge4" class="edge">
<title>R&#45;&gt;K</title>
<path fill="none" stroke="black" d="M76,-104.9C71.52,-111.06 66.21,-118.37 61.22,-125.23"/>
<polygon fill="black" stroke="black" points="58.22,-123.4 55.18,-133.55 63.89,-127.52 58.22,-123.4"/>
</g>
<!-- A -->
<g id="node6" class="node">
<title>A</title>
<ellipse fill="#333335" fill-opacity="0.333333" stroke="#333335" stroke-opacity="0.333333" cx="18.2" cy="-112.45" rx="18" ry="18"/>
<text text-anchor="middle" x="18.2" y="-108.75" font-family="Times,serif" font-size="14.00">A</text>
</g>
<!-- R&#45;&gt;A -->
<g id="edge5" class="edge">
<title>R&#45;&gt;A</title>
<path fill="none" stroke="black" stroke-dasharray="1,5" d="M69.4,-95.81C59.09,-99.16 46.05,-103.4 35.71,-106.76"/>
</g>
<!-- G -->
<g id="node7" class="node">
<title>G</title>
<ellipse fill="#333335" fill-opacity="0.333333" stroke="#333335" stroke-opacity="0.333333" cx="18.2" cy="-67.95" rx="18.4" ry="18.4"/>
<text text-anchor="middle" x="18.2" y="-64.25" font-family="Times,serif" font-size="14.00">G</text>
</g>
<!-- R&#45;&gt;G -->
<g id="edge6" class="edge">
<title>R&#45;&gt;G</title>
<path fill="none" stroke="black" stroke-dasharray="1,5" d="M69.4,-84.58C59.09,-81.24 46.05,-77 35.71,-73.64"/>
</g>
<!-- P -->
<g id="node8" class="node">
<title>P</title>
<ellipse fill="#333335" fill-opacity="0.333333" stroke="#333335" stroke-opacity="0.333333" cx="44.35" cy="-31.95" rx="18" ry="18"/>
<text text-anchor="middle" x="44.35" y="-28.25" font-family="Times,serif" font-size="14.00">P</text>
</g>
<!-- R&#45;&gt;P -->
<g id="edge7" class="edge">
<title>R&#45;&gt;P</title>
<path fill="none" stroke="black" stroke-dasharray="1,5" d="M76,-75.5C69.63,-66.74 61.57,-55.64 55.18,-46.85"/>
</g>
<!-- Q -->
<g id="node9" class="node">
<title>Q</title>
<ellipse fill="#333335" fill-opacity="0.333333" stroke="#333335" stroke-opacity="0.333333" cx="86.67" cy="-18.2" rx="18.4" ry="18.4"/>
<text text-anchor="middle" x="86.67" y="-14.5" font-family="Times,serif" font-size="14.00">Q</text>
</g>
<!-- R&#45;&gt;Q -->
<g id="edge8" class="edge">
<title>R&#45;&gt;Q</title>
<path fill="none" stroke="black" stroke-dasharray="1,5" d="M86.67,-72.03C86.67,-61.2 86.67,-47.49 86.67,-36.61"/>
</g>
<!-- W -->
<g id="node10" class="node">
<title>W</title>
<ellipse fill="#333335" fill-opacity="0.333333" stroke="#333335" stroke-opacity="0.333333" cx="128.99" cy="-31.95" rx="20.3" ry="20.3"/>
<text text-anchor="middle" x="128.99" y="-28.25" font-family="Times,serif" font-size="14.00">W</text>
</g>
<!-- R&#45;&gt;W -->
<g id="edge9" class="edge">
<title>R&#45;&gt;W</title>
<path fill="none" stroke="black" stroke-dasharray="1,5" d="M97.35,-75.5C103.33,-67.28 110.79,-57 116.97,-48.49"/>
</g>
<!-- ellipsis -->
<g id="node11" class="node">
<title>ellipsis</title>
<ellipse fill="#333335" fill-opacity="0.333333" stroke="#333335" stroke-opacity="0.333333" cx="155.15" cy="-67.95" rx="20.3" ry="20.3"/>
<text text-anchor="middle" x="155.15" y="-64.25" font-family="Times,serif" font-size="14.00">…</text>
</g>
<!-- R&#45;&gt;ellipsis -->
<g id="edge10" class="edge">
<title>R&#45;&gt;ellipsis</title>
<path fill="none" stroke="black" stroke-dasharray="1,5" d="M103.95,-84.58C113.62,-81.44 125.7,-77.52 135.7,-74.27"/>
</g>
</g>
</svg>
