<?xml version="1.0" encoding="UTF-8" standalone="no"?>
<!DOCTYPE svg PUBLIC "-//W3C//DTD SVG 1.1//EN"
 "http://www.w3.org/Graphics/SVG/1.1/DTD/svg11.dtd">
<!-- Generated by graphviz version 2.42.3 (20191010.1750)
 -->
<!-- Title: namespace Pages: 1 -->
<svg width="368pt" height="280pt"
 viewBox="0.00 0.00 368.00 280.00" xmlns="http://www.w3.org/2000/svg" xmlns:xlink="http://www.w3.org/1999/xlink">
<g id="graph0" class="graph" transform="scale(1 1) rotate(0) translate(4 276)">
<title>namespace</title>
<polygon fill="white" stroke="transparent" points="-4,4 -4,-276 364,-276 364,4 -4,4"/>
<!-- a -->
<g id="node1" class="node">
<title>a</title>
<polygon fill="none" stroke="black" points="360,-272 0,-272 0,-236 360,-236 360,-272"/>
<text text-anchor="middle" x="180" y="-250.3" font-family="Times,serif" font-size="14.00">Namespaces</text>
</g>
<!-- l -->
<g id="node2" class="node">
<title>l</title>
<polygon fill="none" stroke="black" points="110,-200 32,-200 32,-122 110,-122 110,-200"/>
<text text-anchor="middle" x="71" y="-164.8" font-family="Times,serif" font-size="14.00">Local</text>
<text text-anchor="middle" x="71" y="-149.8" font-family="Times,serif" font-size="14.00">namespace</text>
</g>
<!-- a&#45;&gt;l -->
<g id="edge1" class="edge">
<title>a&#45;&gt;l</title>
<path fill="none" stroke="black" d="M71,-235.63C71,-235.63 71,-210.1 71,-210.1"/>
<polygon fill="black" stroke="black" points="74.5,-210.1 71,-200.1 67.5,-210.1 74.5,-210.1"/>
</g>
<!-- g -->
<g id="node4" class="node">
<title>g</title>
<polygon fill="none" stroke="black" points="219,-200 141,-200 141,-122 219,-122 219,-200"/>
<text text-anchor="middle" x="180" y="-164.8" font-family="Times,serif" font-size="14.00">Global</text>
<text text-anchor="middle" x="180" y="-149.8" font-family="Times,serif" font-size="14.00">namespace</text>
</g>
<!-- a&#45;&gt;g -->
<g id="edge3" class="edge">
<title>a&#45;&gt;g</title>
<path fill="none" stroke="black" d="M180,-235.63C180,-235.63 180,-210.1 180,-210.1"/>
<polygon fill="black" stroke="black" points="183.5,-210.1 180,-200.1 176.5,-210.1 183.5,-210.1"/>
</g>
<!-- b -->
<g id="node6" class="node">
<title>b</title>
<polygon fill="none" stroke="black" points="322,-200 244,-200 244,-122 322,-122 322,-200"/>
<text text-anchor="middle" x="283" y="-164.8" font-family="Times,serif" font-size="14.00">Built&#45;in</text>
<text text-anchor="middle" x="283" y="-149.8" font-family="Times,serif" font-size="14.00">namespace</text>
</g>
<!-- a&#45;&gt;b -->
<g id="edge5" class="edge">
<title>a&#45;&gt;b</title>
<path fill="none" stroke="black" d="M283,-235.63C283,-235.63 283,-210.1 283,-210.1"/>
<polygon fill="black" stroke="black" points="286.5,-210.1 283,-200.1 279.5,-210.1 286.5,-210.1"/>
</g>
<!-- ln -->
<g id="node3" class="node">
<title>ln</title>
<polygon fill="none" stroke="black" points="111,-86 5,-86 5,0 111,0 111,-86"/>
<text text-anchor="middle" x="58" y="-54.3" font-family="Times,serif" font-size="14.00">Specific to</text>
<text text-anchor="middle" x="58" y="-39.3" font-family="Times,serif" font-size="14.00">current function</text>
<text text-anchor="middle" x="58" y="-24.3" font-family="Times,serif" font-size="14.00">or class method</text>
</g>
<!-- l&#45;&gt;ln -->
<g id="edge2" class="edge">
<title>l&#45;&gt;ln</title>
<path fill="none" stroke="black" d="M71,-121.71C71,-121.71 71,-96.18 71,-96.18"/>
<polygon fill="black" stroke="black" points="74.5,-96.18 71,-86.18 67.5,-96.18 74.5,-96.18"/>
</g>
<!-- gn -->
<g id="node5" class="node">
<title>gn</title>
<polygon fill="none" stroke="black" points="231,-86 129,-86 129,0 231,0 231,-86"/>
<text text-anchor="middle" x="180" y="-46.8" font-family="Times,serif" font-size="14.00">Specific to</text>
<text text-anchor="middle" x="180" y="-31.8" font-family="Times,serif" font-size="14.00">current module</text>
</g>
<!-- g&#45;&gt;gn -->
<g id="edge4" class="edge">
<title>g&#45;&gt;gn</title>
<path fill="none" stroke="black" d="M180,-121.71C180,-121.71 180,-96.18 180,-96.18"/>
<polygon fill="black" stroke="black" points="183.5,-96.18 180,-86.18 176.5,-96.18 183.5,-96.18"/>
</g>
<!-- bn -->
<g id="node7" class="node">
<title>bn</title>
<polygon fill="none" stroke="black" points="330.5,-86 249.5,-86 249.5,0 330.5,0 330.5,-86"/>
<text text-anchor="middle" x="290" y="-46.8" font-family="Times,serif" font-size="14.00">Global to</text>
<text text-anchor="middle" x="290" y="-31.8" font-family="Times,serif" font-size="14.00">all modules</text>
</g>
<!-- b&#45;&gt;bn -->
<g id="edge6" class="edge">
<title>b&#45;&gt;bn</title>
<path fill="none" stroke="black" d="M285.75,-121.71C285.75,-121.71 285.75,-96.18 285.75,-96.18"/>
<polygon fill="black" stroke="black" points="289.25,-96.18 285.75,-86.18 282.25,-96.18 289.25,-96.18"/>
</g>
</g>
</svg>
