<?xml version="1.0" encoding="UTF-8" standalone="no"?>
<!DOCTYPE svg PUBLIC "-//W3C//DTD SVG 1.1//EN"
 "http://www.w3.org/Graphics/SVG/1.1/DTD/svg11.dtd">
<!-- Generated by graphviz version 2.43.0 (0)
 -->
<!-- Title: foo Pages: 1 -->
<svg width="348pt" height="105pt"
 viewBox="0.00 0.00 348.00 105.00" xmlns="http://www.w3.org/2000/svg" xmlns:xlink="http://www.w3.org/1999/xlink">
<g id="graph0" class="graph" transform="scale(1 1) rotate(0) translate(4 101)">
<title>foo</title>
<polygon fill="white" stroke="transparent" points="-4,4 -4,-101 344,-101 344,4 -4,4"/>
<!-- a -->
<g id="node1" class="node">
<title>a</title>
<polygon fill="none" stroke="black" points="98,-66.5 0,-66.5 0,-30.5 104,-30.5 104,-60.5 98,-66.5"/>
<polyline fill="none" stroke="black" points="98,-66.5 98,-60.5 "/>
<polyline fill="none" stroke="black" points="104,-60.5 98,-60.5 "/>
<text text-anchor="middle" x="52" y="-44.8" font-family="Times,serif" font-size="14.00">Source code</text>
</g>
<!-- b -->
<g id="node2" class="node">
<title>b</title>
<polygon fill="none" stroke="black" points="237,-97 140,-97 140,0 237,0 237,-97"/>
<text text-anchor="middle" x="188.5" y="-44.8" font-family="Times,serif" font-size="14.00">Interpreter</text>
</g>
<!-- a&#45;&gt;b -->
<g id="edge1" class="edge">
<title>a&#45;&gt;b</title>
<path fill="none" stroke="black" d="M104.23,-48.5C112.57,-48.5 121.26,-48.5 129.74,-48.5"/>
<polygon fill="black" stroke="black" points="129.95,-52 139.95,-48.5 129.95,-45 129.95,-52"/>
</g>
<!-- c -->
<g id="node3" class="node">
<title>c</title>
<polygon fill="none" stroke="black" points="340,-66.5 277,-66.5 273,-62.5 273,-30.5 336,-30.5 340,-34.5 340,-66.5"/>
<polyline fill="none" stroke="black" points="336,-62.5 273,-62.5 "/>
<polyline fill="none" stroke="black" points="336,-62.5 336,-30.5 "/>
<polyline fill="none" stroke="black" points="336,-62.5 340,-66.5 "/>
<text text-anchor="middle" x="306.5" y="-44.8" font-family="Times,serif" font-size="14.00">Output</text>
</g>
<!-- b&#45;&gt;c -->
<g id="edge2" class="edge">
<title>b&#45;&gt;c</title>
<path fill="none" stroke="black" d="M237.02,-48.5C245.46,-48.5 254.22,-48.5 262.53,-48.5"/>
<polygon fill="black" stroke="black" points="262.76,-52 272.76,-48.5 262.76,-45 262.76,-52"/>
</g>
</g>
</svg>
