<?xml version="1.0" encoding="UTF-8" standalone="no"?>
<!DOCTYPE svg PUBLIC "-//W3C//DTD SVG 1.1//EN"
 "http://www.w3.org/Graphics/SVG/1.1/DTD/svg11.dtd">
<!-- Generated by graphviz version 2.42.3 (20191010.1750)
 -->
<!-- Title: foo Pages: 1 -->
<svg width="295pt" height="83pt"
 viewBox="0.00 0.00 294.76 83.07" xmlns="http://www.w3.org/2000/svg" xmlns:xlink="http://www.w3.org/1999/xlink">
<g id="graph0" class="graph" transform="scale(1 1) rotate(0) translate(4 79.07)">
<title>foo</title>
<polygon fill="white" stroke="transparent" points="-4,4 -4,-79.07 290.76,-79.07 290.76,4 -4,4"/>
<!-- a -->
<g id="node1" class="node">
<title>a</title>
<polygon fill="none" stroke="black" points="78.71,-55.53 0.1,-55.53 0.1,-19.53 84.71,-19.53 84.71,-49.53 78.71,-55.53"/>
<polyline fill="none" stroke="black" points="78.71,-55.53 78.71,-49.53 "/>
<polyline fill="none" stroke="black" points="84.71,-49.53 78.71,-49.53 "/>
<text text-anchor="middle" x="42.4" y="-33.33" font-family="Times,serif" font-size="14.00">Source code</text>
</g>
<!-- b -->
<g id="node2" class="node">
<title>b</title>
<polygon fill="none" stroke="black" points="195.91,-75.1 120.77,-75.1 120.77,0.03 195.91,0.03 195.91,-75.1"/>
<text text-anchor="middle" x="158.34" y="-33.33" font-family="Times,serif" font-size="14.00">Interpreter</text>
</g>
<!-- a&#45;&gt;b -->
<g id="edge1" class="edge">
<title>a&#45;&gt;b</title>
<path fill="none" stroke="black" d="M84.86,-37.53C93.18,-37.53 101.98,-37.53 110.47,-37.53"/>
<polygon fill="black" stroke="black" points="110.63,-41.03 120.63,-37.53 110.63,-34.03 110.63,-41.03"/>
</g>
<!-- c -->
<g id="node3" class="node">
<title>c</title>
<polygon fill="none" stroke="black" points="286.71,-55.53 235.93,-55.53 231.93,-51.53 231.93,-19.53 282.71,-19.53 286.71,-23.53 286.71,-55.53"/>
<polyline fill="none" stroke="black" points="282.71,-51.53 231.93,-51.53 "/>
<polyline fill="none" stroke="black" points="282.71,-51.53 282.71,-19.53 "/>
<polyline fill="none" stroke="black" points="282.71,-51.53 286.71,-55.53 "/>
<text text-anchor="middle" x="259.32" y="-33.33" font-family="Times,serif" font-size="14.00">Output</text>
</g>
<!-- b&#45;&gt;c -->
<g id="edge2" class="edge">
<title>b&#45;&gt;c</title>
<path fill="none" stroke="black" d="M195.91,-37.53C204.28,-37.53 213.17,-37.53 221.54,-37.53"/>
<polygon fill="black" stroke="black" points="221.79,-41.03 231.79,-37.53 221.79,-34.03 221.79,-41.03"/>
</g>
</g>
</svg>
