<?xml version="1.0" encoding="UTF-8" standalone="no"?>
<!DOCTYPE svg PUBLIC "-//W3C//DTD SVG 1.1//EN"
 "http://www.w3.org/Graphics/SVG/1.1/DTD/svg11.dtd">
<!-- Generated by graphviz version 2.42.3 (20191010.1750)
 -->
<!-- Title: phylo_workflow Pages: 1 -->
<svg width="273pt" height="525pt"
 viewBox="0.00 0.00 272.69 524.67" xmlns="http://www.w3.org/2000/svg" xmlns:xlink="http://www.w3.org/1999/xlink">
<g id="graph0" class="graph" transform="scale(1 1) rotate(0) translate(4 520.67)">
<title>phylo_workflow</title>
<polygon fill="white" stroke="transparent" points="-4,4 -4,-520.67 268.69,-520.67 268.69,4 -4,4"/>
<g id="clust1" class="cluster">
<title>cluster_preprocess</title>
<polygon fill="lightgreen" stroke="lightgreen" points="8,-229.84 8,-452.67 112,-452.67 112,-229.84 8,-229.84"/>
</g>
<g id="clust2" class="cluster">
<title>cluster_decide_model</title>
<polygon fill="#cdc9a5" stroke="#cdc9a5" points="150,-103.55 150,-328.33 256,-328.33 256,-103.55 150,-103.55"/>
</g>
<g id="clust3" class="cluster">
<title>cluster_fit_model</title>
<polygon fill="lightblue" stroke="lightblue" points="60,-8 60,-194.86 142,-194.86 142,-8 60,-8"/>
</g>
<!-- A -->
<g id="node1" class="node">
<title>A</title>
<polygon fill="white" stroke="white" points="104.34,-444.84 15.66,-444.84 15.66,-356.16 104.34,-356.16 104.34,-444.84"/>
<text text-anchor="middle" x="60" y="-410.3" font-family="Times,serif" font-size="14.00">Sample</text>
<text text-anchor="middle" x="60" y="-396.3" font-family="Times,serif" font-size="14.00">Homologous</text>
<text text-anchor="middle" x="60" y="-382.3" font-family="Times,serif" font-size="14.00">Sequences</text>
</g>
<!-- B -->
<g id="node2" class="node">
<title>B</title>
<polygon fill="white" stroke="white" points="97.88,-313.67 22.12,-313.67 22.12,-237.9 97.88,-237.9 97.88,-313.67"/>
<text text-anchor="middle" x="60" y="-285.58" font-family="Times,serif" font-size="14.00">Multiple</text>
<text text-anchor="middle" x="60" y="-271.58" font-family="Times,serif" font-size="14.00">Sequence</text>
<text text-anchor="middle" x="60" y="-257.58" font-family="Times,serif" font-size="14.00">Alignment</text>
</g>
<!-- A&#45;&gt;B -->
<g id="edge1" class="edge">
<title>A&#45;&gt;B</title>
<path fill="none" stroke="black" d="M60,-356.23C60,-345.88 60,-334.78 60,-324.25"/>
<polygon fill="black" stroke="black" points="63.5,-323.96 60,-313.96 56.5,-323.96 63.5,-323.96"/>
</g>
<!-- C -->
<g id="node3" class="node">
<title>C</title>
<polygon fill="white" stroke="white" points="247.6,-320.38 158.4,-320.38 158.4,-231.19 247.6,-231.19 247.6,-320.38"/>
<text text-anchor="middle" x="203" y="-285.58" font-family="Times,serif" font-size="14.00">Choose</text>
<text text-anchor="middle" x="203" y="-271.58" font-family="Times,serif" font-size="14.00">Phylogenetic</text>
<text text-anchor="middle" x="203" y="-257.58" font-family="Times,serif" font-size="14.00">Method</text>
</g>
<!-- A&#45;&gt;C -->
<g id="edge4" class="edge">
<title>A&#45;&gt;C</title>
<path fill="none" stroke="black" d="M112,-354.88C121.81,-346.46 132.14,-337.59 142.19,-328.97"/>
<polygon fill="black" stroke="black" points="144.69,-331.43 150,-322.26 140.14,-326.12 144.69,-331.43"/>
</g>
<!-- D -->
<g id="node4" class="node">
<title>D</title>
<polygon fill="white" stroke="white" points="245.68,-195.08 162.32,-195.08 162.32,-111.71 245.68,-111.71 245.68,-195.08"/>
<text text-anchor="middle" x="204" y="-163.19" font-family="Times,serif" font-size="14.00">Choose</text>
<text text-anchor="middle" x="204" y="-149.19" font-family="Times,serif" font-size="14.00">Substitution</text>
<text text-anchor="middle" x="204" y="-135.19" font-family="Times,serif" font-size="14.00">Model</text>
</g>
<!-- C&#45;&gt;D -->
<g id="edge2" class="edge">
<title>C&#45;&gt;D</title>
<path fill="none" stroke="black" d="M203.36,-230.98C203.43,-222.66 203.51,-213.89 203.58,-205.38"/>
<polygon fill="black" stroke="black" points="207.08,-205.19 203.66,-195.16 200.08,-205.13 207.08,-205.19"/>
</g>
<!-- E -->
<g id="node5" class="node">
<title>E</title>
<polygon fill="white" stroke="white" points="134.44,-186.83 67.56,-186.83 67.56,-119.95 134.44,-119.95 134.44,-186.83"/>
<text text-anchor="middle" x="101" y="-163.19" font-family="Times,serif" font-size="14.00">Estimate</text>
<text text-anchor="middle" x="101" y="-149.19" font-family="Times,serif" font-size="14.00">Model &amp;</text>
<text text-anchor="middle" x="101" y="-135.19" font-family="Times,serif" font-size="14.00">Tree</text>
</g>
<!-- C&#45;&gt;E -->
<g id="edge5" class="edge">
<title>C&#45;&gt;E</title>
<path fill="none" stroke="black" d="M150,-212.23C147.27,-209 144.54,-205.79 141.86,-202.62"/>
<polygon fill="black" stroke="black" points="144.42,-200.23 135.29,-194.86 139.08,-204.76 144.42,-200.23"/>
</g>
<!-- F -->
<g id="node6" class="node">
<title>F</title>
<polygon fill="white" stroke="white" points="130.55,-75.33 71.45,-75.33 71.45,-16.22 130.55,-16.22 130.55,-75.33"/>
<text text-anchor="middle" x="101" y="-48.58" font-family="Times,serif" font-size="14.00">Display</text>
<text text-anchor="middle" x="101" y="-34.58" font-family="Times,serif" font-size="14.00">Results</text>
</g>
<!-- E&#45;&gt;F -->
<g id="edge3" class="edge">
<title>E&#45;&gt;F</title>
<path fill="none" stroke="black" d="M101,-119.84C101,-108.98 101,-96.78 101,-85.5"/>
<polygon fill="black" stroke="black" points="104.5,-85.46 101,-75.46 97.5,-85.46 104.5,-85.46"/>
</g>
<!-- Db -->
<g id="node7" class="node">
<title>Db</title>
<polygon fill="white" stroke="transparent" points="212.8,-516.67 145.2,-516.67 145.2,-480.67 212.8,-480.67 212.8,-516.67"/>
<text text-anchor="middle" x="179" y="-494.47" font-family="Times,serif" font-size="14.00">Database</text>
</g>
<!-- Db&#45;&gt;A -->
<g id="edge6" class="edge">
<title>Db&#45;&gt;A</title>
<path fill="none" stroke="black" d="M157.73,-480.48C144.97,-470.17 128.15,-456.58 112.07,-443.58"/>
<polygon fill="black" stroke="black" points="114.23,-440.83 104.26,-437.26 109.83,-446.27 114.23,-440.83"/>
</g>
<!-- Db&#45;&gt;D -->
<!-- Sft -->
<g id="node8" class="node">
<title>Sft</title>
<polygon fill="white" stroke="transparent" points="212.04,-418.5 145.96,-418.5 145.96,-382.5 212.04,-382.5 212.04,-418.5"/>
<text text-anchor="middle" x="179" y="-396.3" font-family="Times,serif" font-size="14.00">Software</text>
</g>
<!-- Db&#45;&gt;Sft -->
<!-- Sft&#45;&gt;C -->
<g id="edge9" class="edge">
<title>Sft&#45;&gt;C</title>
<path fill="none" stroke="black" d="M182.34,-382.44C184.99,-368.87 188.85,-349.12 192.52,-330.36"/>
<polygon fill="black" stroke="black" points="195.99,-330.86 194.47,-320.38 189.12,-329.52 195.99,-330.86"/>
</g>
<!-- Sft&#45;&gt;E -->
</g>
</svg>
