<?xml version="1.0" encoding="UTF-8" standalone="no"?>
<!DOCTYPE svg PUBLIC "-//W3C//DTD SVG 1.1//EN"
 "http://www.w3.org/Graphics/SVG/1.1/DTD/svg11.dtd">
<!-- Generated by graphviz version 2.42.3 (20191010.1750)
 -->
<!-- Title: phylo_workflow Pages: 1 -->
<svg width="275pt" height="527pt"
 viewBox="0.00 0.00 274.64 527.00" xmlns="http://www.w3.org/2000/svg" xmlns:xlink="http://www.w3.org/1999/xlink">
<g id="graph0" class="graph" transform="scale(1 1) rotate(0) translate(4 523)">
<title>phylo_workflow</title>
<polygon fill="white" stroke="transparent" points="-4,4 -4,-523 270.64,-523 270.64,4 -4,4"/>
<g id="clust1" class="cluster">
<title>cluster_preprocess</title>
<polygon fill="lightgreen" stroke="lightgreen" points="8,-231 8,-455 114,-455 114,-231 8,-231"/>
</g>
<g id="clust2" class="cluster">
<title>cluster_decide_model</title>
<polygon fill="#cdc9a5" stroke="#cdc9a5" points="152,-104 152,-330 258,-330 258,-104 152,-104"/>
</g>
<g id="clust3" class="cluster">
<title>cluster_fit_model</title>
<polygon fill="lightblue" stroke="lightblue" points="60,-8 60,-195.5 144,-195.5 144,-8 60,-8"/>
</g>
<!-- A -->
<g id="node1" class="node">
<title>A</title>
<polygon fill="white" stroke="white" points="105.5,-447 16.5,-447 16.5,-358 105.5,-358 105.5,-447"/>
<text text-anchor="middle" x="61" y="-413.8" font-family="Times,serif" font-size="14.00">Sample</text>
<text text-anchor="middle" x="61" y="-398.8" font-family="Times,serif" font-size="14.00">Homologous</text>
<text text-anchor="middle" x="61" y="-383.8" font-family="Times,serif" font-size="14.00">Sequences</text>
</g>
<!-- B -->
<g id="node2" class="node">
<title>B</title>
<polygon fill="white" stroke="white" points="99,-315 23,-315 23,-239 99,-239 99,-315"/>
<text text-anchor="middle" x="61" y="-288.3" font-family="Times,serif" font-size="14.00">Multiple</text>
<text text-anchor="middle" x="61" y="-273.3" font-family="Times,serif" font-size="14.00">Sequence</text>
<text text-anchor="middle" x="61" y="-258.3" font-family="Times,serif" font-size="14.00">Alignment</text>
</g>
<!-- A&#45;&gt;B -->
<g id="edge1" class="edge">
<title>A&#45;&gt;B</title>
<path fill="none" stroke="black" d="M61,-357.96C61,-347.33 61,-335.91 61,-325.12"/>
<polygon fill="black" stroke="black" points="64.5,-325.01 61,-315.01 57.5,-325.01 64.5,-325.01"/>
</g>
<!-- C -->
<g id="node3" class="node">
<title>C</title>
<polygon fill="white" stroke="white" points="250,-322 160,-322 160,-232 250,-232 250,-322"/>
<text text-anchor="middle" x="205" y="-288.3" font-family="Times,serif" font-size="14.00">Choose</text>
<text text-anchor="middle" x="205" y="-273.3" font-family="Times,serif" font-size="14.00">Phylogenetic</text>
<text text-anchor="middle" x="205" y="-258.3" font-family="Times,serif" font-size="14.00">Method</text>
</g>
<!-- A&#45;&gt;C -->
<g id="edge4" class="edge">
<title>A&#45;&gt;C</title>
<path fill="none" stroke="black" d="M114,-356.05C126.38,-345.43 139.57,-334.12 151.95,-323.5"/>
<polygon fill="black" stroke="black" points="154.78,-333.02 152,-322.8 147.8,-332.53 154.78,-333.02"/>
</g>
<!-- D -->
<g id="node4" class="node">
<title>D</title>
<polygon fill="white" stroke="white" points="248,-196 164,-196 164,-112 248,-112 248,-196"/>
<text text-anchor="middle" x="206" y="-165.3" font-family="Times,serif" font-size="14.00">Choose</text>
<text text-anchor="middle" x="206" y="-150.3" font-family="Times,serif" font-size="14.00">Substitution</text>
<text text-anchor="middle" x="206" y="-135.3" font-family="Times,serif" font-size="14.00">Model</text>
</g>
<!-- C&#45;&gt;D -->
<g id="edge2" class="edge">
<title>C&#45;&gt;D</title>
<path fill="none" stroke="black" d="M205.36,-231.97C205.43,-223.71 205.5,-215 205.57,-206.54"/>
<polygon fill="black" stroke="black" points="209.08,-206.4 205.66,-196.37 202.08,-206.34 209.08,-206.4"/>
</g>
<!-- E -->
<g id="node5" class="node">
<title>E</title>
<polygon fill="white" stroke="white" points="135.5,-187.5 68.5,-187.5 68.5,-120.5 135.5,-120.5 135.5,-187.5"/>
<text text-anchor="middle" x="102" y="-165.3" font-family="Times,serif" font-size="14.00">Estimate</text>
<text text-anchor="middle" x="102" y="-150.3" font-family="Times,serif" font-size="14.00">Model &amp;</text>
<text text-anchor="middle" x="102" y="-135.3" font-family="Times,serif" font-size="14.00">Tree</text>
</g>
<!-- C&#45;&gt;E -->
<g id="edge5" class="edge">
<title>C&#45;&gt;E</title>
<path fill="none" stroke="black" d="M152,-213.74C146.79,-207.61 141.59,-201.51 136.62,-195.67"/>
<polygon fill="black" stroke="black" points="146.47,-194.52 135.92,-195.5 144.78,-201.31 146.47,-194.52"/>
</g>
<!-- F -->
<g id="node6" class="node">
<title>F</title>
<polygon fill="white" stroke="white" points="132,-76 72,-76 72,-16 132,-16 132,-76"/>
<text text-anchor="middle" x="102" y="-49.8" font-family="Times,serif" font-size="14.00">Display</text>
<text text-anchor="middle" x="102" y="-34.8" font-family="Times,serif" font-size="14.00">Results</text>
</g>
<!-- E&#45;&gt;F -->
<g id="edge3" class="edge">
<title>E&#45;&gt;F</title>
<path fill="none" stroke="black" d="M102,-120.33C102,-109.53 102,-97.39 102,-86.15"/>
<polygon fill="black" stroke="black" points="105.5,-86.14 102,-76.14 98.5,-86.14 105.5,-86.14"/>
</g>
<!-- Db -->
<g id="node7" class="node">
<title>Db</title>
<polygon fill="white" stroke="transparent" points="215,-519 147,-519 147,-483 215,-483 215,-519"/>
<text text-anchor="middle" x="181" y="-497.3" font-family="Times,serif" font-size="14.00">Database</text>
</g>
<!-- Db&#45;&gt;A -->
<g id="edge6" class="edge">
<title>Db&#45;&gt;A</title>
<path fill="none" stroke="black" d="M159.82,-482.97C146.93,-472.6 129.84,-458.86 113.51,-445.72"/>
<polygon fill="black" stroke="black" points="115.56,-442.88 105.57,-439.34 111.17,-448.34 115.56,-442.88"/>
</g>
<!-- Db&#45;&gt;D -->
<!-- Sft -->
<g id="node8" class="node">
<title>Sft</title>
<polygon fill="white" stroke="transparent" points="214.5,-420.5 147.5,-420.5 147.5,-384.5 214.5,-384.5 214.5,-420.5"/>
<text text-anchor="middle" x="181" y="-398.8" font-family="Times,serif" font-size="14.00">Software</text>
</g>
<!-- Db&#45;&gt;Sft -->
<!-- Sft&#45;&gt;C -->
<g id="edge9" class="edge">
<title>Sft&#45;&gt;C</title>
<path fill="none" stroke="black" d="M184.34,-384.33C186.98,-370.73 190.82,-350.96 194.48,-332.15"/>
<polygon fill="black" stroke="black" points="197.95,-332.62 196.42,-322.14 191.08,-331.29 197.95,-332.62"/>
</g>
<!-- Sft&#45;&gt;E -->
</g>
</svg>
